<mxfile host="app.diagrams.net" modified="2022-10-03T04:25:36.979Z" agent="5.0 (X11; Linux x86_64) AppleWebKit/537.36 (KHTML, like Gecko) Chrome/105.0.0.0 Safari/537.36" etag="Oau0VlTU7emSLQC91MjY" version="20.3.7" type="github">
  <diagram id="XKPUyu1Tm3LvS_-IyQQq" name="Page-1">
    <mxGraphModel dx="1366" dy="773" grid="1" gridSize="10" guides="1" tooltips="1" connect="1" arrows="1" fold="1" page="1" pageScale="1" pageWidth="1400" pageHeight="1100" math="0" shadow="0">
      <root>
        <mxCell id="0" />
        <mxCell id="1" parent="0" />
        <mxCell id="m20iAj5jg8t047wm3KUM-1" value="" style="fontColor=#0066CC;verticalAlign=top;verticalLabelPosition=bottom;labelPosition=center;align=center;html=1;outlineConnect=0;fillColor=#CCCCCC;strokeColor=#6881B3;gradientColor=none;gradientDirection=north;strokeWidth=2;shape=mxgraph.networks.wireless_hub;" vertex="1" parent="1">
          <mxGeometry x="580" y="310" width="100" height="85" as="geometry" />
        </mxCell>
        <mxCell id="m20iAj5jg8t047wm3KUM-2" value="" style="fontColor=#0066CC;verticalAlign=top;verticalLabelPosition=bottom;labelPosition=center;align=center;html=1;outlineConnect=0;fillColor=#CCCCCC;strokeColor=#6881B3;gradientColor=none;gradientDirection=north;strokeWidth=2;shape=mxgraph.networks.web_server;" vertex="1" parent="1">
          <mxGeometry x="830" y="180" width="105" height="105" as="geometry" />
        </mxCell>
        <mxCell id="m20iAj5jg8t047wm3KUM-3" value="" style="fontColor=#0066CC;verticalAlign=top;verticalLabelPosition=bottom;labelPosition=center;align=center;html=1;outlineConnect=0;fillColor=#CCCCCC;strokeColor=#6881B3;gradientColor=none;gradientDirection=north;strokeWidth=2;shape=mxgraph.networks.mobile;" vertex="1" parent="1">
          <mxGeometry x="370" y="420" width="50" height="100" as="geometry" />
        </mxCell>
        <mxCell id="m20iAj5jg8t047wm3KUM-4" value="" style="fontColor=#0066CC;verticalAlign=top;verticalLabelPosition=bottom;labelPosition=center;align=center;html=1;outlineConnect=0;fillColor=#CCCCCC;strokeColor=#6881B3;gradientColor=none;gradientDirection=north;strokeWidth=2;shape=mxgraph.networks.terminal;" vertex="1" parent="1">
          <mxGeometry x="830" y="437.5" width="80" height="65" as="geometry" />
        </mxCell>
        <mxCell id="m20iAj5jg8t047wm3KUM-5" value="" style="fontColor=#0066CC;verticalAlign=top;verticalLabelPosition=bottom;labelPosition=center;align=center;html=1;outlineConnect=0;fillColor=#CCCCCC;strokeColor=#6881B3;gradientColor=none;gradientDirection=north;strokeWidth=2;shape=mxgraph.networks.terminal;" vertex="1" parent="1">
          <mxGeometry x="355" y="200" width="80" height="65" as="geometry" />
        </mxCell>
        <mxCell id="m20iAj5jg8t047wm3KUM-6" value="" style="html=1;outlineConnect=0;fillColor=#f8cecc;strokeColor=#b85450;gradientDirection=north;strokeWidth=2;shape=mxgraph.networks.comm_link_edge;html=1;rounded=0;exitX=1;exitY=0.7;exitDx=0;exitDy=0;exitPerimeter=0;entryX=0;entryY=0.93;entryDx=0;entryDy=0;entryPerimeter=0;" edge="1" parent="1" source="m20iAj5jg8t047wm3KUM-1" target="m20iAj5jg8t047wm3KUM-2">
          <mxGeometry width="100" height="100" relative="1" as="geometry">
            <mxPoint x="700" y="380" as="sourcePoint" />
            <mxPoint x="800" y="280" as="targetPoint" />
          </mxGeometry>
        </mxCell>
        <mxCell id="m20iAj5jg8t047wm3KUM-7" value="" style="html=1;outlineConnect=0;fillColor=#f8cecc;strokeColor=#b85450;gradientDirection=north;strokeWidth=2;shape=mxgraph.networks.comm_link_edge;html=1;rounded=0;" edge="1" parent="1" source="m20iAj5jg8t047wm3KUM-3">
          <mxGeometry width="100" height="100" relative="1" as="geometry">
            <mxPoint x="460" y="490" as="sourcePoint" />
            <mxPoint x="560" y="390" as="targetPoint" />
          </mxGeometry>
        </mxCell>
        <mxCell id="m20iAj5jg8t047wm3KUM-8" value="" style="html=1;outlineConnect=0;gradientDirection=north;strokeWidth=2;shape=mxgraph.networks.comm_link_edge;html=1;rounded=0;entryX=0;entryY=0.7;entryDx=0;entryDy=0;entryPerimeter=0;fillColor=#f5f5f5;strokeColor=#666666;" edge="1" parent="1" target="m20iAj5jg8t047wm3KUM-1">
          <mxGeometry width="100" height="100" relative="1" as="geometry">
            <mxPoint x="435" y="265" as="sourcePoint" />
            <mxPoint x="535" y="325" as="targetPoint" />
          </mxGeometry>
        </mxCell>
        <mxCell id="m20iAj5jg8t047wm3KUM-9" value="" style="html=1;outlineConnect=0;fillColor=#f5f5f5;strokeColor=#666666;gradientDirection=north;strokeWidth=2;shape=mxgraph.networks.comm_link_edge;html=1;rounded=0;exitX=0.98;exitY=0.94;exitDx=0;exitDy=0;exitPerimeter=0;" edge="1" parent="1" source="m20iAj5jg8t047wm3KUM-1">
          <mxGeometry width="100" height="100" relative="1" as="geometry">
            <mxPoint x="730" y="410" as="sourcePoint" />
            <mxPoint x="830" y="470" as="targetPoint" />
            <Array as="points">
              <mxPoint x="670" y="400" />
            </Array>
          </mxGeometry>
        </mxCell>
        <mxCell id="m20iAj5jg8t047wm3KUM-10" value="10.0.0.3 is a web server having an web app and 10.0.0.5 wants to consume it" style="text;html=1;strokeColor=none;fillColor=#dae8fc;align=center;verticalAlign=middle;whiteSpace=wrap;rounded=0;fontSize=15;fontStyle=0" vertex="1" parent="1">
          <mxGeometry x="395" y="90" width="540" height="30" as="geometry" />
        </mxCell>
        <mxCell id="m20iAj5jg8t047wm3KUM-11" value="10.0.0.3:&lt;font color=&quot;#ff0000&quot;&gt;80&lt;/font&gt;" style="text;html=1;align=center;verticalAlign=middle;whiteSpace=wrap;rounded=0;fontSize=15;fillColor=#f5f5f5;fontColor=#333333;strokeColor=none;fontStyle=1" vertex="1" parent="1">
          <mxGeometry x="817.5" y="310" width="130" height="30" as="geometry" />
        </mxCell>
        <mxCell id="m20iAj5jg8t047wm3KUM-12" value="10.0.0.4" style="text;html=1;align=center;verticalAlign=middle;whiteSpace=wrap;rounded=0;fontSize=15;fillColor=#f5f5f5;fontColor=#333333;strokeColor=none;fontStyle=1" vertex="1" parent="1">
          <mxGeometry x="806" y="550" width="130" height="30" as="geometry" />
        </mxCell>
        <mxCell id="m20iAj5jg8t047wm3KUM-13" value="10.0.0.2" style="text;html=1;align=center;verticalAlign=middle;whiteSpace=wrap;rounded=0;fontSize=15;fillColor=#f5f5f5;fontColor=#333333;strokeColor=none;fontStyle=1" vertex="1" parent="1">
          <mxGeometry x="320" y="310" width="130" height="30" as="geometry" />
        </mxCell>
        <mxCell id="m20iAj5jg8t047wm3KUM-14" value="10.0.0.5" style="text;html=1;align=center;verticalAlign=middle;whiteSpace=wrap;rounded=0;fontSize=15;fillColor=#f5f5f5;fontColor=#333333;strokeColor=none;fontStyle=1" vertex="1" parent="1">
          <mxGeometry x="330" y="550" width="130" height="30" as="geometry" />
        </mxCell>
        <mxCell id="m20iAj5jg8t047wm3KUM-15" value="10.0.0.1" style="text;html=1;align=center;verticalAlign=middle;whiteSpace=wrap;rounded=0;fontSize=15;fillColor=#f5f5f5;fontColor=#333333;strokeColor=none;" vertex="1" parent="1">
          <mxGeometry x="565" y="437.5" width="130" height="30" as="geometry" />
        </mxCell>
      </root>
    </mxGraphModel>
  </diagram>
</mxfile>
